# xmcd
#
# Track frame offsets:
#	150
#	20120
#	35797
#	56185
#	73200
#	89227
#	107627
#	129040
#	144717
#	160265
#	177657
#	196502
#	234707
#	256492
#
# Disc length: 3629 seconds
#
# Revision: 0
# Processed by: cddbd v1.5.2PL0 Copyright (c) Steve Scherf et al.
# Submitted via: EasyCDDAExtractor 10.5.1.1
#
DISCID=d60e2b0e
DTITLE=Moore, Yvonne - Walkin' the Blues
DYEAR=1900
DGENRE=Blues
TTITLE0=Undercover Girl
TTITLE1=You got a hold on my Heart
TTITLE2=Blue Morning for Daddy
TTITLE3=Labor of Love
TTITLE4=Today I sing the Blues
TTITLE5=Bad Rumour
TTITLE6=Let me stay
TTITLE7=Shake it
TTITLE8=Natural Woman
TTITLE9=Running behind my own Life
TTITLE10=Snakin' through the Country
TTITLE11=Dr. Feelgood
TTITLE12=Be kind to me
TTITLE13=Let's get it Together
EXTD=
EXTT0=
EXTT1=
EXTT2=
EXTT3=
EXTT4=
EXTT5=
EXTT6=
EXTT7=
EXTT8=
EXTT9=
EXTT10=
EXTT11=
EXTT12=
EXTT13=
PLAYORDER=
